<svg
  xmlns="http://www.w3.org/2000/svg"
  viewBox="0 0 25 25"
  fill="none"
>
  <path
    d="M20.0325 20.654L13.7705 14.392C13.2705 14.818 12.6955 15.1477 12.0455 15.381C11.3955 15.6144 10.7421 15.731 10.0855 15.731C8.48414 15.731 7.1288 15.1767 6.01947 14.068C4.91014 12.9594 4.35547 11.6044 4.35547 10.003C4.35547 8.40171 4.90947 7.04605 6.01747 5.93605C7.12547 4.82605 8.48014 4.27038 10.0815 4.26905C11.6828 4.26771 13.0388 4.82238 14.1495 5.93305C15.2601 7.04371 15.8155 8.39938 15.8155 10C15.8155 10.6947 15.6925 11.367 15.4465 12.017C15.2005 12.667 14.8771 13.223 14.4765 13.685L20.7385 19.946L20.0325 20.654ZM10.0865 14.73C11.4131 14.73 12.5331 14.2734 13.4465 13.36C14.3598 12.4467 14.8165 11.3264 14.8165 9.99904C14.8165 8.67171 14.3598 7.55171 13.4465 6.63905C12.5331 5.72638 11.4131 5.26971 10.0865 5.26905C8.7598 5.26838 7.63947 5.72505 6.72547 6.63905C5.81147 7.55305 5.3548 8.67305 5.35547 9.99904C5.35614 11.325 5.8128 12.445 6.72547 13.359C7.63814 14.273 8.75814 14.7297 10.0855 14.729"
    fill="#6A6565"
  />
</svg>