<svg
    xmlns="http://www.w3.org/2000/svg"
    width="13"
    height="13"
    viewBox="0 0 13 13"
    fill="none"
>
    <path
        fill-rule="evenodd"
        clip-rule="evenodd"
        d="M6.00272 0.0708398C5.71447 0.0966 5.06907 0.232358 4.73776 0.337005C4.55045 0.39616 4.18845 0.545833 3.93334 0.669603C2.23863 1.49193 1.04086 3.04332 0.643751 4.93048C0.560548 5.32588 0.548916 5.46402 0.547418 6.07585C0.545491 6.86435 0.593836 7.21272 0.799917 7.89468C1.09434 8.86904 1.71144 9.86159 2.44518 10.5409C2.6468 10.7275 3.31724 11.2493 3.35549 11.2493C3.36516 11.2493 3.47615 11.3119 3.60217 11.3885C4.0731 11.6746 4.79188 11.9363 5.4903 12.0759C5.82864 12.1435 6.01075 12.157 6.59142 12.157C7.36148 12.157 7.77853 12.0961 8.44508 11.8865C8.90687 11.7413 9.71114 11.3382 10.1236 11.0452C10.5579 10.7367 11.2166 10.078 11.5251 9.64373C11.9702 9.01714 12.3774 8.08778 12.5288 7.35297C12.7465 6.29634 12.6698 5.13028 12.3156 4.11144C12.1866 3.74048 11.9268 3.18479 11.7972 3.00282C11.7598 2.95027 11.7292 2.89618 11.7292 2.88266C11.7292 2.86913 11.6128 2.70316 11.4705 2.51377C10.4504 1.15601 9.02483 0.318808 7.36169 0.100811C6.98364 0.0512525 6.3731 0.0378012 6.00272 0.0708398ZM7.34249 1.309C9.36138 1.63675 10.9257 3.13523 11.363 5.16036C11.4516 5.57053 11.4516 6.65252 11.363 7.06269C11.0379 8.56816 10.0602 9.82448 8.69583 10.4899C7.99046 10.8338 7.47297 10.946 6.59142 10.946C5.88469 10.946 5.61828 10.9081 5.073 10.7301C3.77928 10.3078 2.67777 9.30186 2.13252 8.04482C1.7053 7.0598 1.618 5.92143 1.88987 4.8806C2.37114 3.03793 3.9139 1.63222 5.80648 1.31182C6.17069 1.25017 6.97097 1.24867 7.34249 1.309ZM6.28619 2.18538C6.1525 2.23955 5.99101 2.46047 5.96679 2.62241C5.95419 2.70665 5.94913 3.53016 5.95551 4.45246C5.96707 6.11145 5.96804 6.13129 6.04889 6.3099C6.11454 6.455 6.3772 6.73648 7.38677 7.74344C8.78007 9.13313 8.74749 9.10916 9.07217 8.98517C9.32592 8.88827 9.44666 8.65686 9.39346 8.36946C9.37173 8.25208 9.21981 8.08514 8.23172 7.09269C7.60652 6.46475 7.07801 5.90576 7.05728 5.85053C7.0328 5.78538 7.01957 5.18248 7.01957 4.13431V2.51852L6.93857 2.39728C6.8016 2.19227 6.50618 2.09629 6.28619 2.18538Z"
        fill="#6A6565"
    />
</svg>