<svg
    xmlns="http://www.w3.org/2000/svg"
    width="11"
    height="15"
    viewBox="0 0 11 15"
    fill="none"
>
    <path
        d="M5.27788 0.634353L5.28189 0.684192L5.84291 14.1556L5.87089 14.197C5.87089 14.197 5.87089 14.197 5.8709 14.197C5.87262 14.1958 5.87432 14.1947 5.87602 14.1936C5.90554 14.1737 5.93164 14.1561 5.96861 14.1123C6.00558 14.0684 6.05399 13.9978 6.13429 13.8688C6.29078 13.6175 6.57412 13.1352 7.13949 12.1727L7.19041 12.086C7.63432 11.3303 8.14593 10.4602 8.32734 10.1524C8.81199 9.32993 9.47358 8.16085 9.73544 7.66398C10.3483 6.50127 10.4863 5.35892 10.1643 4.11102C9.8654 2.95319 9.06636 1.91439 7.97821 1.266L7.95261 1.30896L7.97821 1.266C7.42557 0.936745 6.71014 0.713353 5.99897 0.64696L5.99432 0.696742L5.99897 0.64696C5.63297 0.612807 5.56223 0.61147 5.27788 0.634353ZM7.64942 2.2824L7.64943 2.2824C9.07584 3.22895 9.6654 5.02018 9.08114 6.63261C9.01025 6.82827 8.82725 7.19322 8.49744 7.78816C8.1683 8.38188 7.69467 9.20163 7.04451 10.3051C6.70924 10.8742 6.3501 11.4849 6.24644 11.6623C6.02468 12.0417 5.85905 12.3221 5.74605 12.5094C5.68952 12.6031 5.64636 12.6731 5.61601 12.7205C5.61043 12.7292 5.60533 12.7371 5.60069 12.7441C5.58007 12.7149 5.55242 12.6732 5.51932 12.6214C5.44792 12.5097 5.35252 12.3531 5.25044 12.1788L5.20729 12.2041L5.25044 12.1788L4.12314 10.2544C3.70771 9.5453 3.30986 8.86599 3.23905 8.74475L3.23905 8.74474C2.99871 8.33343 2.75003 7.89032 2.5494 7.51963C2.34808 7.14764 2.19691 6.85176 2.14991 6.73302L2.10342 6.75142L2.14991 6.73302C1.8978 6.09617 1.82465 5.34003 1.95317 4.70893C2.04802 4.24329 2.10181 4.08166 2.28116 3.7204C2.80881 2.65761 3.78559 1.92204 4.94988 1.71053C5.24505 1.65691 5.82165 1.6507 6.16167 1.698C6.68696 1.77109 7.15593 1.95487 7.64942 2.2824ZM3.40044 4.63546L3.40043 4.63547C3.36426 4.77435 3.34694 4.9843 3.34694 5.19087C3.34694 5.39744 3.36426 5.60738 3.40043 5.74627L3.40044 5.74628C3.53239 6.25274 3.91055 6.78162 4.35194 7.07762C5.20221 7.64782 6.39996 7.54747 7.1434 6.84378C8.07154 5.96527 8.09932 4.51396 7.20434 3.61179C6.9173 3.32244 6.60522 3.12708 6.25429 3.01871C6.14441 2.98477 5.95121 2.95749 5.76277 2.94247C5.57456 2.92747 5.38221 2.92398 5.27423 2.94074C4.38206 3.07923 3.62824 3.76105 3.40044 4.63546ZM6.14394 6.29273L6.14393 6.29274L5.07606 6.30599C5.07606 6.30599 5.07606 6.30599 5.07605 6.30599C4.81944 6.17998 4.61015 5.96656 4.48526 5.70294C4.43607 5.5991 4.4116 5.53995 4.39846 5.47185C4.38509 5.40261 4.383 5.32191 4.38386 5.17419C4.38467 5.03137 4.38811 4.94927 4.40119 4.88104C4.414 4.81426 4.43647 4.75877 4.47968 4.66994L4.47968 4.66993C4.65685 4.3056 5.01637 4.03315 5.40132 3.96957L5.39317 3.92024L5.40132 3.96957C5.58237 3.93966 5.75574 3.95472 5.97489 4.02169C6.38527 4.14708 6.68211 4.46769 6.79659 4.91451C6.93179 5.44233 6.65749 6.02672 6.14394 6.29273Z"
        fill="#6A6565"
        stroke="#6A6565"
        stroke-width="0.1"
    />
</svg>