<svg xmlns="http://www.w3.org/2000/svg" width="25" height="24" viewBox="0 0 25 24" fill="none">
    <path
        d="M12.5 5L12.1464 4.64645L12.5 4.29289L12.8536 4.64645L12.5 5ZM13 14C13 14.2761 12.7761 14.5 12.5 14.5C12.2239 14.5 12 14.2761 12 14L13 14ZM7.14645 9.64645L12.1464 4.64645L12.8536 5.35355L7.85355 10.3536L7.14645 9.64645ZM12.8536 4.64645L17.8536 9.64645L17.1464 10.3536L12.1464 5.35355L12.8536 4.64645ZM13 5L13 14L12 14L12 5L13 5Z"
        fill="white" />
    <path
        d="M5.5 16L5.5 17C5.5 18.1046 6.39543 19 7.5 19L17.5 19C18.6046 19 19.5 18.1046 19.5 17V16"
        stroke="white" />
</svg>